<?xml version="1.0" standalone="no"?>
<!DOCTYPE svg PUBLIC "-//W3C//DTD SVG 20010904//EN"
 "http://www.w3.org/TR/2001/REC-SVG-20010904/DTD/svg10.dtd">
<svg version="1.0" xmlns="http://www.w3.org/2000/svg"
 width="338.000000pt" height="338.000000pt" viewBox="0 0 338.000000 338.000000"
 preserveAspectRatio="xMidYMid meet">
<metadata>
Created by potrace 1.11, written by Peter Selinger 2001-2013
</metadata>
<g transform="translate(0.000000,338.000000) scale(0.100000,-0.100000)"
fill="#000000" stroke="none">
<path d="M1678 3159 c-9 -28 -14 -57 -11 -65 3 -8 0 -14 -6 -14 -6 0 -11 -16
-11 -35 0 -24 -5 -35 -15 -35 -11 0 -15 -11 -15 -40 0 -33 -3 -40 -17 -38 -15
3 -18 -6 -21 -54 -2 -43 -6 -56 -17 -52 -19 8 -27 -28 -19 -82 7 -46 6 -46
-16 -34 l-23 12 6 -71 c6 -67 5 -71 -13 -61 -10 5 -21 10 -24 10 -8 0 4 -76
15 -108 7 -19 6 -23 -9 -21 -9 1 -20 1 -23 0 -6 -1 5 -77 17 -114 5 -16 2 -18
-15 -12 -18 5 -21 2 -21 -22 1 -15 7 -46 15 -68 8 -22 15 -41 15 -42 0 -1 -11
2 -25 7 -21 8 -25 7 -25 -9 0 -17 20 -87 35 -125 7 -16 6 -17 -14 -6 -13 6
-25 10 -27 7 -7 -6 23 -96 41 -123 16 -25 16 -25 -7 -22 -34 5 -34 -28 0 -94
27 -50 28 -55 10 -50 -17 4 -18 1 -12 -24 4 -16 18 -50 31 -76 22 -46 23 -48
4 -48 -17 0 -18 -4 -11 -29 11 -38 29 -72 52 -97 17 -19 17 -22 4 -27 -24 -9
-19 -30 18 -86 23 -33 30 -51 21 -51 -8 0 -20 9 -28 20 -8 12 -21 18 -29 15
-11 -4 -20 7 -32 38 -19 51 -56 92 -56 64 0 -10 -4 -17 -10 -17 -5 0 -10 4
-10 8 0 4 -14 30 -31 57 -28 44 -32 47 -44 32 -12 -16 -13 -16 -19 7 -7 27
-53 86 -67 86 -5 0 -9 -7 -9 -15 0 -25 -17 -17 -30 14 -6 16 -22 39 -35 51
l-22 21 -7 -23 c-6 -23 -6 -23 -25 7 -10 17 -30 41 -44 53 -25 23 -25 23 -32
3 -5 -18 -9 -17 -42 20 -38 42 -53 49 -53 22 0 -12 -13 -5 -44 26 -37 36 -45
41 -53 27 -8 -14 -14 -11 -43 19 -39 40 -50 43 -50 14 0 -19 -4 -17 -42 17
-36 32 -43 35 -52 22 -8 -14 -14 -13 -49 10 -30 20 -40 23 -47 12 -6 -10 -16
-8 -45 10 -28 17 -39 20 -45 10 -6 -9 -13 -8 -33 5 -15 9 -30 14 -35 11 -4 -3
-28 2 -53 11 -24 8 -63 21 -86 28 -52 16 -50 11 22 -67 27 -29 48 -58 47 -64
-1 -6 9 -19 23 -28 14 -10 22 -22 19 -31 -4 -9 7 -22 30 -36 27 -16 34 -24 26
-34 -12 -14 -3 -23 48 -49 27 -14 31 -20 22 -31 -9 -11 -5 -18 22 -35 18 -11
39 -20 46 -20 17 0 15 -11 -5 -25 -14 -11 -10 -15 37 -32 30 -12 48 -23 41
-27 -21 -13 -11 -24 37 -42 58 -22 60 -23 42 -35 -13 -8 -13 -10 0 -19 8 -6
35 -15 59 -22 34 -8 40 -13 27 -20 -29 -16 -17 -28 44 -45 52 -14 57 -18 42
-29 -16 -11 -15 -13 9 -23 15 -5 43 -13 63 -17 29 -5 34 -9 26 -19 -16 -19 19
-36 76 -38 30 -1 43 -6 39 -14 -7 -19 28 -33 81 -33 42 0 45 -2 33 -17 -11
-13 -11 -17 -1 -20 6 -3 12 -9 12 -14 0 -6 -10 -3 -22 5 -26 18 -58 21 -58 5
0 -6 -7 -8 -16 -5 -45 17 -64 18 -58 3 5 -13 0 -14 -30 -7 -27 6 -36 5 -36 -5
0 -11 -7 -11 -32 -4 -41 11 -38 12 -38 -5 0 -12 -7 -13 -32 -5 -41 11 -38 12
-38 -5 0 -11 -9 -13 -35 -9 -27 4 -35 2 -35 -9 0 -10 -8 -13 -30 -10 -21 3
-30 0 -30 -10 0 -10 -9 -13 -30 -10 -18 3 -30 0 -30 -7 0 -6 -9 -11 -20 -11
-11 0 -20 -4 -20 -8 0 -5 -25 -14 -55 -21 -30 -7 -55 -16 -55 -20 0 -4 34 -16
75 -26 41 -11 75 -23 75 -27 0 -4 11 -8 25 -8 13 0 28 -7 33 -16 6 -12 18 -15
36 -12 19 4 26 1 26 -10 0 -11 8 -13 35 -9 26 4 35 2 35 -9 0 -17 -3 -16 38
-5 18 6 30 6 27 1 -9 -15 11 -20 44 -10 24 7 31 5 31 -5 0 -11 7 -12 32 -4 40
11 41 11 33 0 -10 -17 9 -19 47 -7 30 11 35 11 31 0 -7 -18 15 -18 50 0 23 13
27 13 27 0 0 -17 1 -17 37 -3 15 7 39 11 52 10 14 0 35 6 47 14 33 21 42 19
16 -5 -12 -11 -24 -20 -27 -20 -10 0 -145 -124 -145 -133 0 -3 -9 -16 -20 -29
-45 -54 -89 -118 -81 -118 6 0 22 5 37 10 15 6 43 13 63 16 20 3 41 10 47 15
7 5 16 9 20 8 5 -1 20 2 34 8 14 6 30 11 35 13 6 1 18 9 28 17 9 9 17 12 17 8
0 -4 8 -1 18 8 10 10 21 15 24 12 3 -3 11 1 18 10 7 8 18 15 25 15 7 0 15 7
19 15 3 8 9 14 13 13 8 -3 103 86 103 96 0 3 11 16 24 30 l23 26 7 -108 c17
-251 55 -444 116 -578 17 -37 32 -70 34 -72 4 -4 66 26 66 32 0 2 -16 29 -35
61 -60 101 -104 236 -124 388 -11 80 -14 334 -4 307 8 -21 61 -89 100 -128 18
-18 33 -37 33 -42 0 -6 6 -10 14 -10 8 0 17 -7 20 -16 3 -8 10 -13 15 -9 6 3
13 0 18 -7 4 -7 31 -24 58 -38 28 -14 53 -28 56 -33 3 -4 10 -7 15 -6 5 1 23
-4 39 -11 35 -15 40 -17 79 -25 16 -3 37 -10 47 -15 32 -18 43 -11 22 13 -11
12 -37 48 -58 80 -21 31 -42 57 -46 57 -5 0 -8 4 -7 8 2 5 -25 36 -59 69 -72
70 -80 91 -26 65 25 -11 37 -13 40 -6 3 8 16 5 40 -7 35 -18 59 -17 48 2 -8
13 -2 11 31 -6 36 -19 55 -19 48 -1 -5 12 0 12 33 1 32 -11 38 -11 41 1 2 8 4
14 5 14 1 0 17 -4 35 -9 25 -7 32 -7 32 4 0 10 9 11 35 5 25 -6 35 -4 35 4 0
8 12 11 36 8 28 -3 35 -1 29 8 -6 10 1 11 29 6 28 -5 36 -4 36 8 0 12 7 14 30
10 22 -5 31 -2 36 10 4 10 18 16 35 16 16 0 29 4 29 8 0 5 24 14 53 21 108 28
110 31 37 52 -36 11 -70 21 -77 22 -7 2 -16 6 -19 10 -4 4 -17 7 -30 7 -12 0
-25 7 -28 16 -5 12 -14 15 -36 10 -23 -4 -30 -2 -30 10 0 12 -7 14 -35 8 -29
-5 -34 -4 -29 9 5 13 0 14 -30 7 -27 -6 -36 -5 -36 5 0 10 -9 11 -35 5 -27 -6
-35 -5 -35 6 0 17 3 16 -38 5 -26 -8 -32 -7 -32 5 0 16 -44 10 -69 -10 -12 -9
-13 -8 -8 7 7 20 -13 23 -45 6 -23 -12 -37 -4 -20 13 8 8 7 15 -6 24 -15 12
-11 13 30 14 26 0 59 5 73 10 23 9 25 13 15 25 -11 13 -6 15 37 15 51 0 96 21
75 34 -21 13 -13 26 17 26 30 0 91 18 91 27 0 3 -8 12 -17 19 -16 12 -15 13
10 14 30 0 97 25 97 36 0 4 -8 13 -17 20 -17 12 -16 13 7 14 34 1 96 35 81 44
-16 10 -14 26 4 26 20 0 85 32 85 42 0 4 -4 8 -10 8 -22 0 -8 18 18 23 35 7
72 36 55 43 -20 9 -15 22 10 30 42 13 68 36 57 49 -7 9 0 19 30 39 41 27 49
41 28 48 -6 2 6 14 26 26 25 15 36 28 32 37 -3 9 5 21 20 31 14 10 23 23 20
31 -3 7 3 19 14 25 11 7 20 18 20 25 0 7 4 13 9 13 5 0 24 19 42 42 l33 41
-26 -6 c-15 -4 -40 -12 -55 -19 -15 -6 -32 -10 -36 -9 -4 1 -17 -5 -29 -13
-11 -8 -27 -12 -34 -9 -8 3 -25 -2 -38 -11 -21 -13 -25 -14 -30 0 -5 12 -12
11 -43 -11 -21 -14 -39 -21 -41 -15 -6 16 -23 12 -58 -15 -39 -30 -42 -30 -46
-8 -3 14 -11 10 -44 -20 -48 -43 -54 -45 -54 -15 0 20 -5 17 -45 -22 -32 -31
-45 -39 -45 -27 0 26 -10 21 -57 -25 -31 -30 -43 -37 -43 -25 0 27 -16 20 -54
-25 -32 -39 -36 -41 -36 -20 0 34 -19 24 -60 -31 -31 -42 -36 -45 -40 -26 -5
21 -7 20 -38 -15 -17 -20 -32 -43 -32 -51 0 -20 -16 -19 -24 1 -6 15 -9 14
-31 -6 -13 -13 -29 -38 -36 -57 -9 -27 -14 -32 -24 -23 -11 9 -20 2 -44 -31
-17 -23 -31 -49 -32 -58 0 -9 -4 -6 -10 9 l-10 25 -25 -30 c-13 -16 -29 -47
-36 -67 -8 -29 -14 -35 -24 -28 -9 8 -18 3 -34 -20 -12 -17 -24 -29 -27 -26
-3 2 9 22 25 43 38 47 52 93 28 93 -22 0 -20 5 13 48 29 37 58 109 48 118 -3
3 -14 1 -24 -4 -15 -9 -13 1 14 55 39 77 42 98 13 90 -21 -5 -28 7 -10 18 17
11 50 83 50 110 0 22 -3 25 -25 19 l-25 -6 24 43 c24 45 43 109 31 109 -3 0
-15 -5 -26 -10 -23 -13 -23 -16 1 48 11 29 20 63 20 77 0 22 -3 24 -25 15 -14
-5 -25 -8 -25 -7 0 1 7 20 15 42 8 22 14 53 15 68 0 24 -3 27 -21 22 -17 -6
-20 -4 -15 12 12 37 23 113 17 114 -3 1 -13 1 -22 0 -14 -2 -14 4 -1 59 16 67
14 77 -17 61 -19 -11 -20 -9 -14 60 l6 71 -22 -12 c-22 -11 -22 -11 -16 33 8
54 -1 91 -21 83 -11 -4 -14 6 -14 49 0 48 -2 55 -20 55 -17 0 -20 7 -20 40 0
29 -4 40 -15 40 -10 0 -15 11 -15 35 0 19 -5 35 -11 35 -6 0 -9 6 -6 14 6 15
-23 116 -33 116 -3 0 -14 -23 -22 -51z m427 -1999 c-3 -5 -11 -10 -16 -10 -6
0 -7 5 -4 10 3 6 11 10 16 10 6 0 7 -4 4 -10z"/>
</g>
</svg>
